<?xml version="1.0" encoding="UTF-8" standalone="no"?>
<svg width="133px" height="71px" viewBox="0 0 133 71" version="1.1" xmlns="http://www.w3.org/2000/svg" xmlns:xlink="http://www.w3.org/1999/xlink">
    <!-- Generator: Sketch 42 (36781) - http://www.bohemiancoding.com/sketch -->
    <title>logo</title>
    <desc>Created with Sketch.</desc>
    <defs>
        <polygon id="path-1" points="132.999858 14.2 0 14.2 0 0.000142 132.999858 0.000142"></polygon>
    </defs>
    <g id="Page-1" stroke="none" stroke-width="1" fill="none" fill-rule="evenodd">
        <g id="Home-≥1200px" transform="translate(-30.000000, -15.000000)">
            <g id="Header">
                <g id="nav" transform="translate(30.000000, 15.000000)">
                    <g id="logo">
                        <path d="M90.7446175,20.5308807 L79.2866675,0.754540667 C79.0159175,0.287360667 78.5162175,4.73333333e-05 77.9751925,4.73333333e-05 L76.1777925,4.73333333e-05 C75.8125175,4.73333333e-05 75.5835675,0.393860667 75.7659675,0.709574 L85.4820925,17.530894 C86.0630175,18.5367273 85.3343675,19.7920073 84.1696675,19.7920073 L84.1340425,19.7920073 C83.5930175,19.7920073 83.0933175,19.504694 82.8225675,19.0379873 L79.5645425,13.414314 C79.3949675,13.1213207 79.0814675,12.9409807 78.7418425,12.9409807 L67.7636425,12.9409807 C67.3978925,12.9409807 67.1694175,13.3352673 67.3522925,13.6509807 L69.5990425,17.5290007 C70.1818675,18.534834 69.4536925,19.7920073 68.2880425,19.7920073 L68.2576425,19.7920073 C67.7161425,19.7920073 67.2154925,19.5037473 66.9452175,19.036094 L56.2230425,0.474327333 C56.0534675,0.180860667 55.7394925,4.73333333e-05 55.3993925,4.73333333e-05 L55.0588175,4.73333333e-05 C54.5187425,4.73333333e-05 54.0190425,0.286887333 53.7482925,0.752647333 L42.2561425,20.529934 C41.9849175,20.9966407 41.9844425,21.5726873 42.2551925,22.0398673 L43.1728925,23.6217473 C43.3557675,23.9369873 43.8122425,23.9369873 43.9951175,23.6222207 L53.7644425,6.81036733 C54.3482175,5.805954 55.8040925,5.807374 56.3854925,6.81320733 L56.4040175,6.845394 C56.6738175,7.31162733 56.6733425,7.886254 56.4030675,8.35248733 L53.1450425,13.9761607 C52.9754675,14.269154 52.9754675,14.629834 53.1450425,14.9228273 L58.6341425,24.396594 C58.8170175,24.7123073 59.2739675,24.7123073 59.4568425,24.396594 L61.7031175,20.5195207 C62.2859425,19.5136873 63.7427675,19.513214 64.3260675,20.518574 L64.3407925,20.544134 C64.6124925,21.0117873 64.6120175,21.587834 64.3403175,22.0554873 L53.5620925,40.605894 C53.3915675,40.8993607 53.3915675,41.260514 53.5616175,41.5539807 L53.7307175,41.8460273 C54.0014675,42.312734 54.5011675,42.6000473 55.0417175,42.6000473 L77.9922925,42.6000473 C78.5086175,42.6000473 78.9893175,42.336874 79.2667175,41.9028273 L80.2827425,40.311954 C80.4836675,39.9971873 80.2570925,39.584914 79.8827925,39.5844407 L60.3137425,39.5584073 C59.1490425,39.5569873 58.4227675,38.3002873 59.0051175,37.2954007 L59.0236425,37.2641607 C59.2939175,36.797454 59.7936175,36.5101407 60.3341675,36.5101407 L66.8506925,36.5101407 C67.1898425,36.5101407 67.5038175,36.3298007 67.6733925,36.0368073 L73.1624925,26.5625673 C73.3453675,26.2473273 73.1168925,25.8525673 72.7511425,25.8525673 L68.2571675,25.8525673 C67.0915175,25.8525673 66.3633425,24.595394 66.9461675,23.5895607 L66.9613675,23.563054 C67.2321175,23.095874 67.7327675,22.8080873 68.2747425,22.809034 L89.7338175,22.8364873 C90.0743925,22.8369607 90.3888425,22.655674 90.5584175,22.361734 L90.7455675,22.037974 C91.0148925,21.5712673 91.0148925,20.997114 90.7446175,20.5308807" id="Fill-1" fill="#FEFEFE"></path>
                        <path d="M87.705995,25.879926 L77.652145,25.854366 C77.312045,25.8534193 76.99712,26.0337593 76.82707,26.3276993 L71.337495,35.8024127 C71.155095,36.1171793 71.38262,36.511466 71.74742,36.5124127 L81.816945,36.5389193 C82.157995,36.539866 82.47292,36.3590527 82.64297,36.0646393 L88.116395,26.5894527 C88.29832,26.2742127 88.070795,25.8808727 87.705995,25.879926" id="Fill-3" fill="#FEFEFE"></path>
                        <path d="M77.1180075,9.18716333 L72.1015325,0.475463333 C71.9324325,0.181523333 71.6179825,0.000236666667 71.2778825,0.000236666667 L60.2973075,0.000236666667 C59.9325075,0.000236666667 59.7035575,0.393576667 59.8854825,0.708816667 L64.9029075,9.42051667 C65.0724825,9.71493 65.3864575,9.89621667 65.7270325,9.89621667 L76.7061825,9.89621667 C77.0709825,9.89621667 77.2999325,9.50287667 77.1180075,9.18716333" id="Fill-5" fill="#FEFEFE"></path>
                        <path d="M51.516885,18.20227 C51.334485,17.88703 50.87801,17.8865567 50.69466,18.2013233 L45.624035,26.9030833 C45.453035,27.1960767 45.45256,27.5581767 45.62261,27.8516433 L51.11266,37.3273033 C51.295535,37.6425433 51.751535,37.6430167 51.934885,37.32825 L57.005035,28.6255433 C57.176035,28.33255 57.17651,27.97045 57.00646,27.6769833 L51.516885,18.20227 Z" id="Fill-7" fill="#FEFEFE"></path>
                        <g id="Group-11" transform="translate(0.000000, 56.800000)">
                            <mask id="mask-2" fill="white">
                                <use xlink:href="#path-1"></use>
                            </mask>
                            <g id="Clip-10"></g>
                            <path d="M94.0417825,8.54901533 L98.4550075,8.54901533 L98.4550075,11.015082 C97.7952325,11.6318353 96.4961075,12.3716553 94.9699325,12.3716553 C92.1037825,12.3716553 89.9586825,10.151722 89.9586825,7.08972867 C89.9586825,4.007382 92.1037825,1.829102 94.9699325,1.829102 C96.2885325,1.829102 97.4546575,2.367282 98.2635825,3.13881533 C98.5756575,3.43606867 99.0373575,3.508962 99.4107075,3.293122 L99.4164075,3.28980867 C99.9602825,2.97551533 100.056233,2.22622867 99.6035575,1.79123533 C98.4963325,0.728128667 97.0024575,0.000142 94.9699325,0.000142 C91.0307575,0.000142 87.8344825,2.81505533 87.8344825,7.08972867 C87.8344825,11.3639287 91.0307575,14.200142 94.9699325,14.200142 C96.9430825,14.200142 98.6055825,13.5081287 99.8700325,12.4104687 C100.291833,12.0441087 100.517458,11.5016687 100.517458,10.944082 L100.517458,8.06195533 C100.517458,7.33207533 99.9237075,6.740882 99.1917325,6.740882 L95.3675075,6.740882 C94.6355325,6.740882 94.0417825,7.33207533 94.0417825,8.06195533 L94.0417825,8.54901533 Z M74.8608075,1.41777533 L70.4623075,12.450702 C70.1787325,13.1616487 70.7045575,13.933182 71.4721575,13.933182 L71.4807075,13.933182 C71.9281575,13.933182 72.3295325,13.6600687 72.4924575,13.2449553 L73.3355825,11.097442 L77.8818075,11.097442 L77.5307825,10.1370487 C77.3403075,9.61543533 76.8425075,9.26800867 76.2853325,9.26800867 L73.9336075,9.26800867 L76.6149825,2.321842 L80.7617325,13.2340687 C80.9218075,13.654862 81.3265075,13.933182 81.7782325,13.933182 C82.5453575,13.933182 83.0711825,13.1616487 82.7876075,12.450702 L78.3891075,1.41777533 C78.1022075,0.698308667 77.4039575,0.225922 76.6268575,0.225922 L76.6230575,0.225922 C75.8459575,0.225922 75.1477075,0.698308667 74.8608075,1.41777533 L74.8608075,1.41777533 Z M128.133008,5.836342 C126.421583,5.404662 124.936258,5.014162 124.936258,3.78112867 C124.936258,2.63045533 125.987908,1.84992867 127.514558,1.84992867 C128.702058,1.84992867 129.863433,2.16516867 130.819133,2.85954867 C131.230008,3.15869533 131.812358,3.04840867 132.126333,2.64891533 L132.126333,2.648442 C132.453133,2.23332867 132.392333,1.61799533 131.966733,1.303702 C130.838608,0.470162 129.409333,0.0204953333 127.678908,0.0204953333 C124.812758,0.0204953333 122.812533,1.664382 122.812533,3.925022 C122.812533,6.72005533 125.369458,7.35668867 127.576308,7.932262 C129.329058,8.38429533 130.896558,8.79609533 130.896558,10.234082 C130.896558,11.2205087 130.112333,12.3508287 127.885533,12.3508287 C126.403058,12.3508287 125.178983,11.810282 124.271258,11.090342 C123.850408,10.756642 123.236233,10.8479953 122.916558,11.2787287 L122.882358,11.324642 C122.586908,11.722242 122.632508,12.2921353 123.014408,12.6087953 C124.167233,13.5649287 125.755158,14.1797887 127.802883,14.1797887 C131.515008,14.1797887 132.999858,12.1861087 132.999858,10.0490087 C132.999858,7.13090867 130.381183,6.43226867 128.133008,5.836342 L128.133008,5.836342 Z M107.281933,13.933182 L115.613908,13.933182 C116.115033,13.933182 116.521158,13.528482 116.521158,13.0291153 L116.521158,13.0291153 C116.521158,12.5297487 116.115033,12.1245753 115.613908,12.1245753 L109.344383,12.1245753 L109.344383,2.03452867 L115.613908,2.03452867 C116.115033,2.03452867 116.521158,1.62982867 116.521158,1.130462 L116.521158,1.130462 C116.521158,0.631095333 116.115033,0.225922 115.613908,0.225922 L107.281933,0.225922 L107.281933,13.933182 Z M62.8319075,0.225922 L62.8319075,0.225922 C62.5483325,0.225922 62.2794825,0.350882 62.0970825,0.566722 L57.6054825,5.87657533 C57.1936575,6.363162 57.1889075,7.07363533 57.5940825,7.56637533 L62.5497575,13.5829153 C62.7326325,13.8044353 63.0048075,13.933182 63.2926575,13.933182 L63.3240075,13.933182 C64.1419575,13.933182 64.5860825,12.9794153 64.0574075,12.356982 L59.2708325,6.72005533 L63.5567575,1.81253533 C64.0977825,1.192942 63.6565075,0.225922 62.8319075,0.225922 L62.8319075,0.225922 Z M115.713658,6.94583533 L115.713658,6.94583533 C115.713658,6.44646867 115.307533,6.04176867 114.806408,6.04176867 L112.720208,6.04176867 C111.988233,6.04176867 111.394483,6.632962 111.394483,7.362842 L111.394483,7.849902 L114.806408,7.849902 C115.307533,7.849902 115.713658,7.445202 115.713658,6.94583533 L115.713658,6.94583533 Z M10.7030325,13.933182 L10.7030325,13.933182 C11.2725575,13.933182 11.7342575,13.473102 11.7342575,12.9055753 L11.7342575,1.25352867 C11.7342575,0.686002 11.2725575,0.225922 10.7030325,0.225922 L10.7030325,0.225922 C10.1339825,0.225922 9.6722825,0.686002 9.6722825,1.25352867 L9.6722825,12.9055753 C9.6722825,13.473102 10.1339825,13.933182 10.7030325,13.933182 L10.7030325,13.933182 Z M1.0310825,0.225922 L1.0310825,0.225922 C0.4615575,0.225922 -0.0001425,0.686002 -0.0001425,1.25352867 L-0.0001425,12.9055753 C-0.0001425,13.473102 0.4615575,13.933182 1.0310825,13.933182 L1.0310825,13.933182 C1.6006075,13.933182 2.0623075,13.473102 2.0623075,12.9055753 L2.0623075,7.80919533 L7.6012825,7.80919533 L7.6012825,7.30130867 C7.6012825,6.57142867 7.0075325,5.98023533 6.2750825,5.98023533 L2.0623075,5.98023533 L2.0623075,1.25352867 C2.0623075,0.686002 1.6006075,0.225922 1.0310825,0.225922 L1.0310825,0.225922 Z M22.8896325,1.41777533 L18.4612075,12.525962 C18.1923575,13.2009353 18.6911075,13.933182 19.4192825,13.933182 L19.5475325,13.933182 C19.9717075,13.933182 20.3531325,13.6737953 20.5075075,13.279982 L21.3644075,11.097442 L25.9106325,11.097442 L25.5600825,10.1370487 C25.3691325,9.61543533 24.8713325,9.26800867 24.3141575,9.26800867 L21.9624325,9.26800867 L24.6438075,2.321842 L28.8043325,13.2695687 C28.9563325,13.669062 29.3401325,13.933182 29.7685825,13.933182 L29.8882825,13.933182 C30.6169325,13.933182 31.1156825,13.2009353 30.8468325,12.525962 L26.4179325,1.41777533 C26.1310325,0.698308667 25.4327825,0.225922 24.6561575,0.225922 L24.6518825,0.225922 C23.8747825,0.225922 23.1765325,0.698308667 22.8896325,1.41777533 L22.8896325,1.41777533 Z M42.9987575,1.829102 C44.2589325,1.829102 45.3956075,2.38810867 46.1636825,3.217862 C46.4700575,3.548722 46.9483825,3.65332867 47.3478575,3.44269533 L47.3530825,3.43985533 C47.9164325,3.142602 48.0475325,2.38905533 47.6100575,1.92660867 C46.5479575,0.802915333 45.0607325,0.000142 42.9987575,0.000142 C38.9973575,0.000142 35.8628325,2.87753533 35.8628325,7.08972867 C35.8628325,11.3023953 38.9973575,14.1797887 42.9987575,14.1797887 C45.0616825,14.1797887 46.5360825,13.376542 47.6034075,12.2523753 C48.0418325,11.7899287 47.9116825,11.034962 47.3478575,10.7372353 L47.3478575,10.7372353 C46.9483825,10.526602 46.4700575,10.6312087 46.1636825,10.9620687 C45.3951325,11.7913487 44.2589325,12.3508287 42.9987575,12.3508287 C40.1316575,12.3508287 37.9870325,10.151722 37.9870325,7.08972867 C37.9870325,4.007382 40.1316575,1.829102 42.9987575,1.829102 L42.9987575,1.829102 Z M55.5297325,13.933182 L55.6698575,13.933182 C56.2004325,13.933182 56.6307825,13.504342 56.6307825,12.9756287 L56.6307825,1.18394867 C56.6307825,0.654762 56.2004325,0.225922 55.6698575,0.225922 L55.5297325,0.225922 C54.9986825,0.225922 54.5683325,0.654762 54.5683325,1.18394867 L54.5683325,12.9756287 C54.5683325,13.504342 54.9986825,13.933182 55.5297325,13.933182 L55.5297325,13.933182 Z" id="Fill-9" fill="#FEFEFE" mask="url(#mask-2)"></path>
                        </g>
                    </g>
                </g>
            </g>
        </g>
    </g>
</svg>